<svg xmlns="http://www.w3.org/2000/svg" width="771" height="547" id="antivirus-fight-with-hackers"><defs><linearGradient id="a" x1="50%" x2="50%" y1="100%" y2="-11.281%"><stop offset="0%" stop-color="#70B"></stop><stop offset="52.41%" stop-color="#00008B"></stop><stop offset="100%" stop-color="#00003B"></stop></linearGradient><linearGradient id="b" x1="59.433%" x2="39.716%" y1="3.102%" y2="101.142%"><stop offset="0%" stop-color="#88CFDA"></stop><stop offset=".834%" stop-color="#89CFD9"></stop><stop offset="47.84%" stop-color="#C8D9BB"></stop><stop offset="82.18%" stop-color="#F0DFA7"></stop><stop offset="100%" stop-color="#FFE1A0"></stop></linearGradient><linearGradient id="c" x1="-.002%" x2="100%" y1="50%" y2="50%"><stop offset="0%" stop-color="#70B"></stop><stop offset="100%" stop-color="#00008B"></stop><stop offset="100%"></stop></linearGradient><linearGradient id="d" x1="20.047%" x2="78.913%" y1="38.622%" y2="41.748%"><stop offset="0%" stop-color="#DF27C9"></stop><stop offset="51.278%" stop-color="#251F9E"></stop><stop offset="100%" stop-color="#004FDA"></stop></linearGradient><linearGradient id="e" x1=".01%" x2="100.006%" y1="49.997%" y2="49.997%"><stop offset="0%" stop-color="#70B"></stop><stop offset="100%" stop-color="#00008B"></stop><stop offset="100%"></stop></linearGradient><linearGradient id="f" x1=".011%" x2="99.993%" y1="50.042%" y2="50.042%"><stop offset="0%" stop-color="#7A9FFF"></stop><stop offset="78.61%" stop-color="#FFF"></stop></linearGradient><linearGradient id="g" x1="-.001%" x2="99.981%" y1="50.042%" y2="50.042%"><stop offset="0%" stop-color="#7A9FFF"></stop><stop offset="78.61%" stop-color="#FFF"></stop></linearGradient><linearGradient id="h" x1="82.417%" x2="10.962%" y1="50%" y2="50%"><stop offset="0%" stop-color="#0549D2"></stop><stop offset="100%" stop-color="#EC53EF"></stop></linearGradient><linearGradient id="i" x1=".002%" x2="100.003%" y1="50%" y2="50%"><stop offset="0%" stop-color="#88CFDA"></stop><stop offset=".834%" stop-color="#89CFD9"></stop><stop offset="47.84%" stop-color="#C8D9BB"></stop><stop offset="82.18%" stop-color="#F0DFA7"></stop><stop offset="100%" stop-color="#FFE1A0"></stop></linearGradient><linearGradient id="j" x1="0%" x2="100.004%" y1="49.997%" y2="49.997%"><stop offset="0%"></stop><stop offset="100%" stop-color="#00008B"></stop><stop offset="100%"></stop></linearGradient><linearGradient id="k" x1="81.967%" x2="19.676%" y1="52.995%" y2="48.552%"><stop offset="0%"></stop><stop offset="100%" stop-color="#00008B"></stop><stop offset="100%"></stop></linearGradient><linearGradient id="l" x1="49.974%" x2="49.974%" y1="101.725%" y2="3.844%"><stop offset="0%" stop-color="#009AFF"></stop><stop offset="78.61%" stop-color="#AEFFFF"></stop></linearGradient><linearGradient id="m" x1=".012%" x2="100.035%" y1="50.02%" y2="50.02%"><stop offset="0%" stop-color="#7A9FFF"></stop><stop offset="78.61%" stop-color="#FFF"></stop></linearGradient><linearGradient id="n" x1=".01%" x2="100.032%" y1="49.995%" y2="49.995%"><stop offset="0%" stop-color="#311A70"></stop><stop offset="100%" stop-color="#639DDB"></stop></linearGradient><linearGradient id="o" x1="-.029%" x2="99.991%" y1="50.015%" y2="50.015%"><stop offset="0%" stop-color="#311A70"></stop><stop offset="100%" stop-color="#639DDB"></stop></linearGradient><linearGradient id="p" x1="-.001%" x2="100%" y1="50.006%" y2="50.006%"><stop offset="0%" stop-color="#7A9FFF"></stop><stop offset="78.61%" stop-color="#FFF"></stop></linearGradient><linearGradient id="q" x1=".009%" x2="100.007%" y1="49.99%" y2="49.99%"><stop offset="0%" stop-color="#3633B8"></stop><stop offset="78.61%" stop-color="#FFF"></stop></linearGradient><linearGradient id="r" x1="51.921%" x2="47.652%" y1="-.195%" y2="75.79%"><stop offset="0%" stop-color="#7A9FFF"></stop><stop offset="78.61%" stop-color="#FFF"></stop></linearGradient><linearGradient id="s" x1="65.474%" x2="34.14%" y1="29.04%" y2="66.741%"><stop offset="0%" stop-color="#009AFF"></stop><stop offset="78.61%" stop-color="#AEFFFF"></stop></linearGradient><linearGradient id="t" x1="58.918%" x2="43.695%" y1="48.93%" y2="55.95%"><stop offset="0%" stop-color="#009AFF"></stop><stop offset="78.61%" stop-color="#AEFFFF"></stop></linearGradient><linearGradient id="u" x1=".023%" x2="100.048%" y1="50.016%" y2="50.016%"><stop offset="0%" stop-color="#7A9FFF"></stop><stop offset="78.61%" stop-color="#FFF"></stop></linearGradient><linearGradient id="v" x1="-.003%" x2="100.023%" y1="50.011%" y2="50.011%"><stop offset="0%" stop-color="#311A70"></stop><stop offset="100%" stop-color="#639DDB"></stop></linearGradient><linearGradient id="w" x1="-.002%" x2="99.997%" y1="50.027%" y2="50.027%"><stop offset="0%" stop-color="#311A70"></stop><stop offset="100%" stop-color="#639DDB"></stop></linearGradient><linearGradient id="x" x1="124.333%" x2="-5.451%" y1="9.522%" y2="94.208%"><stop offset="0%" stop-color="#3633B8"></stop><stop offset="78.61%" stop-color="#FFF"></stop></linearGradient><linearGradient id="y" x1=".025%" x2="100.024%" y1="49.994%" y2="49.994%"><stop offset="0%" stop-color="#311A70"></stop><stop offset="100%" stop-color="#639DDB"></stop></linearGradient><linearGradient id="z" x1=".003%" x2="99.995%" y1="50.006%" y2="50.006%"><stop offset="0%" stop-color="#7A9FFF"></stop><stop offset="78.61%" stop-color="#FFF"></stop></linearGradient><linearGradient id="A" x1="-.003%" x2="100.001%" y1="50.004%" y2="50.004%"><stop offset="0%" stop-color="#88CFDA"></stop><stop offset=".834%" stop-color="#89CFD9"></stop><stop offset="47.84%" stop-color="#C8D9BB"></stop><stop offset="82.18%" stop-color="#F0DFA7"></stop><stop offset="100%" stop-color="#FFE1A0"></stop></linearGradient><linearGradient id="B" x1="66.091%" x2="47.345%" y1="46.204%" y2="50.124%"><stop offset="0%" stop-color="#88CFDA"></stop><stop offset=".834%" stop-color="#89CFD9"></stop><stop offset="47.84%" stop-color="#C8D9BB"></stop><stop offset="82.18%" stop-color="#F0DFA7"></stop><stop offset="100%" stop-color="#FFE1A0"></stop></linearGradient><linearGradient id="C" x1="50.015%" x2="50.015%" y1="14.335%" y2="97.79%"><stop offset="0%" stop-color="#241A36"></stop><stop offset="100%" stop-color="#8625DB"></stop></linearGradient><linearGradient id="D" x1="74.658%" x2="18.453%" y1="2.66%" y2="128.952%"><stop offset="0%" stop-color="#7A9FFF"></stop><stop offset="78.61%" stop-color="#FFF"></stop></linearGradient><linearGradient id="E" x1="42.398%" x2="101.262%" y1="16.073%" y2="108.586%"><stop offset="0%" stop-color="#7A9FFF"></stop><stop offset="78.61%" stop-color="#FFF"></stop></linearGradient><linearGradient id="F" x1="100.016%" x2=".052%" y1="49.984%" y2="49.984%"><stop offset="0%" stop-color="#311A70"></stop><stop offset="100%" stop-color="#81CAE0"></stop></linearGradient><linearGradient id="G" x1="63.426%" x2="34.234%" y1="23.382%" y2="108.732%"><stop offset="0%" stop-color="#31064C"></stop><stop offset="100%" stop-color="#639DDB"></stop></linearGradient><linearGradient id="H" x1="99.992%" x2=".002%" y1="50.027%" y2="50.027%"><stop offset="0%" stop-color="#270036"></stop><stop offset="59.36%" stop-color="#4F008B"></stop><stop offset="100%" stop-color="#4C24B1"></stop></linearGradient><linearGradient id="I" x1="70.045%" x2="14.433%" y1="90.734%" y2="7.25%"><stop offset="0%" stop-color="#311A70"></stop><stop offset="100%" stop-color="#81CAE0"></stop></linearGradient><linearGradient id="J" x1="82.059%" x2="-17.403%" y1="90.392%" y2="8.182%"><stop offset="0%" stop-color="#4A74BF"></stop><stop offset="78.61%" stop-color="#FFF"></stop></linearGradient><linearGradient id="K" x1="87.148%" x2="6.813%" y1="80.741%" y2="-1.857%"><stop offset="0%" stop-color="#4A74BF"></stop><stop offset="78.61%" stop-color="#FFF"></stop></linearGradient><linearGradient id="L" x1="100.008%" x2=".041%" y1="50.018%" y2="50.018%"><stop offset="0%" stop-color="#31064C"></stop><stop offset="100%" stop-color="#639DDB"></stop></linearGradient><linearGradient id="M" x1="100.002%" x2=".019%" y1="49.941%" y2="49.941%"><stop offset="0%" stop-color="#270036"></stop><stop offset="59.36%" stop-color="#4F008B"></stop><stop offset="100%" stop-color="#4C24B1"></stop></linearGradient><linearGradient id="N" x1="-.028%" x2="99.995%" y1="50.006%" y2="50.006%"><stop offset="0%" stop-color="#311A70"></stop><stop offset="100%" stop-color="#639DDB"></stop></linearGradient><linearGradient id="O" x1="70.279%" x2="20.779%" y1="57.281%" y2="32.173%"><stop offset="0%" stop-color="#3633B8"></stop><stop offset="78.61%" stop-color="#FFF"></stop></linearGradient><linearGradient id="P" x1="36.539%" x2="56.391%" y1="9.74%" y2="100.105%"><stop offset="0%" stop-color="#7A9FFF"></stop><stop offset="78.61%" stop-color="#FFF"></stop></linearGradient><linearGradient id="Q" x1="92.67%" x2="-.01%" y1="64.296%" y2="38.836%"><stop offset="0%" stop-color="#311A70"></stop><stop offset="100%" stop-color="#639DDB"></stop></linearGradient><linearGradient id="R" x1="90.25%" x2="-1.066%" y1="56.369%" y2="38.45%"><stop offset="0%" stop-color="#7A9FFF"></stop><stop offset="78.61%" stop-color="#FFF"></stop></linearGradient><linearGradient id="S" x1="96.49%" x2="6.817%" y1="54.487%" y2="45.613%"><stop offset="0%" stop-color="#7A9FFF"></stop><stop offset="78.61%" stop-color="#FFF"></stop></linearGradient><linearGradient id="T" x1="-2.475%" x2="85.572%" y1="74.827%" y2="32.555%"><stop offset="0%" stop-color="#3633B8"></stop><stop offset="78.61%" stop-color="#FFF"></stop></linearGradient><linearGradient id="U" x1="97.214%" x2="2.705%" y1="58.351%" y2="42.873%"><stop offset="0%" stop-color="#7A9FFF"></stop><stop offset="78.61%" stop-color="#FFF"></stop></linearGradient><linearGradient id="V" x1="91.987%" x2="7.986%" y1="55.252%" y2="46.329%"><stop offset="0%" stop-color="#7A9FFF"></stop><stop offset="78.61%" stop-color="#FFF"></stop></linearGradient><linearGradient id="W" x1="100.099%" x2=".617%" y1="59.816%" y2="40.277%"><stop offset="0%" stop-color="#7A9FFF"></stop><stop offset="78.61%" stop-color="#FFF"></stop></linearGradient><linearGradient id="X" x1="99.998%" x2="-.564%" y1="60.704%" y2="38.897%"><stop offset="0%" stop-color="#7A9FFF"></stop><stop offset="78.61%" stop-color="#FFF"></stop></linearGradient><linearGradient id="Y" x1="89.55%" x2="5.932%" y1="54.241%" y2="30.155%"><stop offset="0%" stop-color="#7A9FFF"></stop><stop offset="78.61%" stop-color="#FFF"></stop></linearGradient><linearGradient id="Z" x1="75.891%" x2="30.406%" y1="58.321%" y2="37.478%"><stop offset="0%" stop-color="#7A9FFF"></stop><stop offset="78.61%" stop-color="#FFF"></stop></linearGradient><linearGradient id="aa" x1="5.207%" x2="67.196%" y1="5.508%" y2="90.879%"><stop offset="0%" stop-color="#311A70"></stop><stop offset="100%" stop-color="#639DDB"></stop></linearGradient><linearGradient id="ab" x1="88.06%" x2="21.173%" y1="64.139%" y2="43.504%"><stop offset="0%" stop-color="#7A9FFF"></stop><stop offset="78.61%" stop-color="#FFF"></stop></linearGradient><linearGradient id="ac" x1="94.869%" x2="-4.011%" y1="68.038%" y2="40.986%"><stop offset="0%" stop-color="#7A9FFF"></stop><stop offset="78.61%" stop-color="#FFF"></stop></linearGradient><linearGradient id="ad" x1="53.141%" x2="46.796%" y1="103.309%" y2="-.066%"><stop offset="0%" stop-color="#009AFF"></stop><stop offset="78.61%" stop-color="#AEFFFF"></stop></linearGradient><linearGradient id="ae" x1="61.161%" x2="39.145%" y1="59.437%" y2="49.347%"><stop offset="0%" stop-color="#1DACFF"></stop><stop offset="16.11%" stop-color="#378FD9"></stop><stop offset="34.36%" stop-color="#5073B4"></stop><stop offset="49.15%" stop-color="#5F629D"></stop><stop offset="58.53%" stop-color="#655C95"></stop><stop offset="63.67%" stop-color="#6F5F91"></stop><stop offset="72.3%" stop-color="#896886"></stop><stop offset="83.36%" stop-color="#B37774"></stop><stop offset="96.28%" stop-color="#ED8C5C"></stop><stop offset="100%" stop-color="#FF9254"></stop></linearGradient><linearGradient id="af" x1="61.155%" x2="39.141%" y1="59.437%" y2="49.348%"><stop offset="0%" stop-color="#7633FF"></stop><stop offset="15.85%" stop-color="#7137FF"></stop><stop offset="35.35%" stop-color="#6243FF"></stop><stop offset="56.76%" stop-color="#4957FF"></stop><stop offset="79.37%" stop-color="#2672FF"></stop><stop offset="100%" stop-color="#0090FF"></stop></linearGradient><linearGradient id="ag" x1="61.538%" x2="42.517%" y1="45.148%" y2="60.411%"><stop offset="0%" stop-color="#311A70"></stop><stop offset="100%" stop-color="#639DDB"></stop></linearGradient><linearGradient id="ah" x1="54.689%" x2="41.914%" y1="48.018%" y2="52.719%"><stop offset="0%" stop-color="#7A9FFF"></stop><stop offset="78.61%" stop-color="#FFF"></stop></linearGradient><linearGradient id="ai" x1="77.026%" x2="23.219%" y1="9.833%" y2="111.493%"><stop offset="0%" stop-color="#7A9FFF"></stop><stop offset="78.61%" stop-color="#FFF"></stop></linearGradient><linearGradient id="aj" x1="49.996%" x2="49.996%" y1="14.335%" y2="97.794%"><stop offset="0%" stop-color="#241A36"></stop><stop offset="100%" stop-color="#8625DB"></stop></linearGradient><linearGradient id="ak" x1="25.318%" x2="81.523%" y1="2.654%" y2="128.947%"><stop offset="0%" stop-color="#7A9FFF"></stop><stop offset="78.61%" stop-color="#FFF"></stop></linearGradient><linearGradient id="al" x1="55.888%" x2="1.962%" y1="21.176%" y2="110.519%"><stop offset="0%" stop-color="#7A9FFF"></stop><stop offset="78.61%" stop-color="#FFF"></stop></linearGradient><linearGradient id="am" x1="-.015%" x2="99.949%" y1="49.987%" y2="49.987%"><stop offset="0%" stop-color="#311A70"></stop><stop offset="100%" stop-color="#81CAE0"></stop></linearGradient><linearGradient id="an" x1="73.038%" x2="41.11%" y1="67.394%" y2="45.668%"><stop offset="0%" stop-color="#31064C"></stop><stop offset="100%" stop-color="#639DDB"></stop></linearGradient><linearGradient id="ao" x1=".009%" x2="99.999%" y1="49.986%" y2="49.986%"><stop offset="0%" stop-color="#270036"></stop><stop offset="59.36%" stop-color="#4F008B"></stop><stop offset="100%" stop-color="#4C24B1"></stop></linearGradient><linearGradient id="ap" x1="13.369%" x2="76.873%" y1="83.48%" y2="41.237%"><stop offset="0%" stop-color="#311A70"></stop><stop offset="100%" stop-color="#81CAE0"></stop></linearGradient><linearGradient id="aq" x1="17.895%" x2="117.362%" y1="90.401%" y2="8.183%"><stop offset="0%" stop-color="#4A74BF"></stop><stop offset="78.61%" stop-color="#FFF"></stop></linearGradient><linearGradient id="ar" x1="12.852%" x2="93.187%" y1="80.745%" y2="-1.852%"><stop offset="0%" stop-color="#4A74BF"></stop><stop offset="78.61%" stop-color="#FFF"></stop></linearGradient><linearGradient id="as" x1="55.739%" x2="33.109%" y1="44.04%" y2="52.56%"><stop offset="0%" stop-color="#31064C"></stop><stop offset="100%" stop-color="#639DDB"></stop></linearGradient><linearGradient id="at" x1="-.002%" x2="99.981%" y1="49.948%" y2="49.948%"><stop offset="0%" stop-color="#270036"></stop><stop offset="59.36%" stop-color="#4F008B"></stop><stop offset="100%" stop-color="#4C24B1"></stop></linearGradient><linearGradient id="au" x1=".003%" x2="99.996%" y1="50.005%" y2="50.005%"><stop offset="0%" stop-color="#311A70"></stop><stop offset="100%" stop-color="#639DDB"></stop></linearGradient><linearGradient id="av" x1="-.009%" x2="99.995%" y1="50.015%" y2="50.015%"><stop offset="0%" stop-color="#7A9FFF"></stop><stop offset="78.61%" stop-color="#FFF"></stop></linearGradient><linearGradient id="aw" x1="-.028%" x2="99.974%" y1="49.969%" y2="49.969%"><stop offset="0%" stop-color="#7A9FFF"></stop><stop offset="78.61%" stop-color="#FFF"></stop></linearGradient><linearGradient id="ax" x1="74.777%" x2="-11.467%" y1="71.392%" y2="2.51%"><stop offset="0%" stop-color="#3633B8"></stop><stop offset="78.61%" stop-color="#FFF"></stop></linearGradient><linearGradient id="ay" x1="-.032%" x2="99.943%" y1="49.997%" y2="49.997%"><stop offset="0%" stop-color="#7A9FFF"></stop><stop offset="78.61%" stop-color="#FFF"></stop></linearGradient><linearGradient id="az" x1="-.015%" x2="100.055%" y1="49.97%" y2="49.97%"><stop offset="0%" stop-color="#7A9FFF"></stop><stop offset="78.61%" stop-color="#FFF"></stop></linearGradient><linearGradient id="aA" x1=".042%" x2="100.017%" y1="50.019%" y2="50.019%"><stop offset="0%" stop-color="#7A9FFF"></stop><stop offset="78.61%" stop-color="#FFF"></stop></linearGradient><linearGradient id="aB" x1=".024%" x2="99.992%" y1="49.999%" y2="49.999%"><stop offset="0%" stop-color="#7A9FFF"></stop><stop offset="78.61%" stop-color="#FFF"></stop></linearGradient><linearGradient id="aC" x1=".032%" x2="100.094%" y1="49.973%" y2="49.973%"><stop offset="0%" stop-color="#7A9FFF"></stop><stop offset="78.61%" stop-color="#FFF"></stop></linearGradient><linearGradient id="aD" x1="-.04%" x2="99.93%" y1="50%" y2="50%"><stop offset="0%" stop-color="#7A9FFF"></stop><stop offset="78.61%" stop-color="#FFF"></stop></linearGradient><linearGradient id="aE" x1="129.326%" x2="23.698%" y1="17.814%" y2="84.718%"><stop offset="0%" stop-color="#311A70"></stop><stop offset="100%" stop-color="#639DDB"></stop></linearGradient><linearGradient id="aF" x1="-.042%" x2="100.024%" y1="50.075%" y2="50.075%"><stop offset="0%" stop-color="#7A9FFF"></stop><stop offset="78.61%" stop-color="#FFF"></stop></linearGradient><linearGradient id="aG" x1="-.011%" x2="100.055%" y1="49.98%" y2="49.98%"><stop offset="0%" stop-color="#7A9FFF"></stop><stop offset="78.61%" stop-color="#FFF"></stop></linearGradient><linearGradient id="aH" x1="38.301%" x2="61.49%" y1="102.946%" y2="-.099%"><stop offset="0%" stop-color="#009AFF"></stop><stop offset="78.61%" stop-color="#AEFFFF"></stop></linearGradient><linearGradient id="aI" x1="43.112%" x2="57.492%" y1="51.401%" y2="49.65%"><stop offset="0%" stop-color="#1DACFF"></stop><stop offset="16.11%" stop-color="#378FD9"></stop><stop offset="34.36%" stop-color="#5073B4"></stop><stop offset="49.15%" stop-color="#5F629D"></stop><stop offset="58.53%" stop-color="#655C95"></stop><stop offset="63.67%" stop-color="#6F5F91"></stop><stop offset="72.3%" stop-color="#896886"></stop><stop offset="83.36%" stop-color="#B37774"></stop><stop offset="96.28%" stop-color="#ED8C5C"></stop><stop offset="100%" stop-color="#FF9254"></stop></linearGradient><linearGradient id="aJ" x1="-.047%" x2="100.002%" y1="49.998%" y2="49.998%"><stop offset="0%" stop-color="#7633FF"></stop><stop offset="15.85%" stop-color="#7137FF"></stop><stop offset="35.35%" stop-color="#6243FF"></stop><stop offset="56.76%" stop-color="#4957FF"></stop><stop offset="79.37%" stop-color="#2672FF"></stop><stop offset="100%" stop-color="#0090FF"></stop></linearGradient><linearGradient id="aK" x1="44.705%" x2="53.398%" y1="43.468%" y2="61.5%"><stop offset="0%" stop-color="#311A70"></stop><stop offset="100%" stop-color="#639DDB"></stop></linearGradient><linearGradient id="aL" x1="47.853%" x2="53.691%" y1="47.361%" y2="53.343%"><stop offset="0%" stop-color="#7A9FFF"></stop><stop offset="78.61%" stop-color="#FFF"></stop></linearGradient></defs><g fill="none"><path fill="url(#a)" d="M736.79 542.13s80.79-104.31-8.67-193.73c-57.92-57.89-75.66-69.61-82.74-99.9C630.16 183.34 574.6.24 412.97.24c-273.22 0-295.8 280.85-295.8 280.85S38.99 296.14 9.88 399.71c-27.58 98.14 11.56 147.24 11.56 147.24l715.35-4.82Z"></path><g fill="#FFF" transform="translate(259 25)"><circle cx="114.53" cy="2.86" r="1.87"></circle><path d="M182.47 59.01c0 .51-.41.92-.92.92s-.92-.41-.92-.92.41-.92.92-.92.92.41.92.92ZM72.43 74.82c0 1.4-1.13 2.53-2.53 2.53s-2.53-1.13-2.53-2.53 1.13-2.53 2.53-2.53a2.54 2.54 0 0 1 2.53 2.53ZM4.53 63.07c0 1.07-.87 1.94-1.94 1.94-1.07 0-1.94-.87-1.94-1.94 0-1.07.87-1.94 1.94-1.94a1.93 1.93 0 0 1 1.94 1.94ZM174.28 7.81c0 .98-.79 1.77-1.77 1.77s-1.77-.79-1.77-1.77.79-1.77 1.77-1.77c.97 0 1.77.8 1.77 1.77Z"></path></g><path fill="url(#b)" d="M210.88 73.59c14.23 14.3 37.36 14.36 51.66.13 14.3-14.23 14.36-37.35.13-51.66-14.23-14.3-37.36-14.36-51.66-.13-14.3 14.23-14.36 37.36-.13 51.66Z" transform="translate(259 25)"></path><path fill="url(#c)" d="M372.94 90.81 187.42.28h-.88L1.02 90.81S-.66 172.4 4.93 216.54c6.21 49.04 30.18 143.61 85.5 200.05s96.11 64.82 96.11 64.82h.88s40.79-8.38 96.11-64.82c55.32-56.44 79.29-151.01 85.5-200.05 5.59-44.15 3.91-125.73 3.91-125.73Z" transform="translate(203 53)"></path><path fill="url(#d)" d="M340.94 109.06 185.36 33.14h-.74L29.04 109.06s-1.41 68.42 3.28 105.44c5.21 41.13 25.31 120.44 71.7 167.77 46.39 47.33 80.6 54.36 80.6 54.36h.74s34.21-7.03 80.6-54.36c46.39-47.33 66.49-126.64 71.7-167.77 4.69-37.02 3.28-105.44 3.28-105.44Z" transform="translate(203 53)"></path><path fill="url(#e)" d="M15.77 12.19S42.16.8 79.74.8c37.59 0 65.87 9.3 72.14 13.67 6.26 4.37 8.16 14.43 9.68 27.91 1.52 13.48 5.88 58.66.95 83.34-4.94 24.68-25.25 50.88-36.45 62.08-11.2 11.2-27.72 22.59-36.64 23.92-8.92 1.33-20.31.19-29.62-6.08-9.3-6.26-33.79-26.77-46.13-50.5C1.33 131.41-.19 114.14.38 94.77c.57-19.36 3.22-63.3 8.35-72.71 4.58-8.35 7.04-9.87 7.04-9.87Z" transform="translate(308 123)"></path><path fill="url(#f)" d="M57.73 75.02s-8.83-9.68-20.22-10.54c-11.39-.85-16.94 5.98-17.09 6.41-.14.43.85 3.27 3.56 3.84 2.71.58 25.49 3 33.75.29Z" transform="translate(308 123)"></path><path fill="#EE30FF" d="M365.73 198.02c-8.26 2.71-31.04.28-33.74-.28-2.7-.57-3.7-3.42-3.56-3.84 0 0-1.42-.05-3.13-1.19s-2.28-7.31-2.28-7.31-.28 1.23-.28 3.32.66 3.61.95 4.56c.28.95-1.61 1.42-1.9 1.33-.28-.1.95.85 2.09 1.04 1.14.19 1.8.85-.38 2.18s-6.64 8.64-6.64 8.64 4.08-5.13 6.17-6.74c2.09-1.61 4.75-1.52 7.69-.95 2.94.57 7.12 3.23 17.09 3.32 9.97.09 18.13-3.7 18.13-3.7l-.21-.38Z"></path><path fill="#000" d="M373.7 183.79s-3.56-.57-8.12-3.42c-4.56-2.85-17.09-11.11-24.77-12.39-7.69-1.28-14.81.28-19.08 3.42-4.27 3.13-4.84 4.27-4.84 4.27s4.56-11.82 17.51-12.81c12.96-1 26.77 3.27 35.74 9.11 8.97 5.84 6.27 11.39 3.56 11.82Z"></path><path fill="#EE30FF" d="m373 162.61-.54-.31a107.728 107.728 0 0 0-7.3-3.68c-2.41-1.1-5.25-2.31-8.37-3.4-1.56-.54-3.19-1.07-4.86-1.51-1.67-.45-3.39-.83-5.13-1.1-1.74-.27-3.49-.44-5.21-.42-.43.02-.86.03-1.29.05-.43.03-.85.08-1.27.13-.42.05-.83.14-1.24.21-.4.07-.82.19-1.22.28-.81.19-1.61.37-2.38.59-.77.21-1.53.4-2.25.64-.73.23-1.44.44-2.1.69-.34.12-.67.24-.99.35-.32.12-.63.26-.94.38-1.24.49-2.32 1.03-3.28 1.54-.93.54-1.74 1.04-2.34 1.53-.61.48-1.05.9-1.32 1.22-.27.32-.38.51-.38.51s.1-.2.36-.52c.26-.33.69-.77 1.29-1.27.59-.51 1.38-1.03 2.3-1.61.94-.54 2.02-1.12 3.25-1.65.31-.13.62-.28.94-.41.32-.13.65-.26.99-.39.67-.27 1.37-.51 2.1-.76.72-.26 1.48-.48 2.25-.71.77-.25 1.56-.44 2.37-.66.41-.1.8-.22 1.23-.32.42-.08.84-.19 1.27-.25.43-.06.86-.12 1.3-.17l1.32-.09c1.77-.07 3.57.04 5.35.27 1.78.22 3.54.56 5.26.97 1.72.4 3.38.88 4.98 1.38 3.2 1.01 6.12 2.15 8.59 3.19a107.762 107.762 0 0 1 7.51 3.52c.37.2.58.3.58.3.42.22.58.74.35 1.15a.85.85 0 0 1-1.15.36c-.01 0-.01-.01-.02-.01l-.01-.02ZM365.59 180.37c-4.56-2.85-17.09-11.11-24.77-12.39-7.69-1.28-14.81.28-19.08 3.42-.4.29-.77.57-1.1.83-.78.66-1.56 1.38-2.32 2.16-.3.31 13.38-6.12 29.47.57 16.09 6.69 28.05 23.92 28.05 23.92s-1.08-8.81-5.7-16.18c-1.29-.52-2.85-1.27-4.55-2.33Z"></path><path fill="url(#g)" d="M108.13 75.02s8.83-9.68 20.22-10.54c11.39-.85 16.94 5.98 17.09 6.41.14.43-.85 3.27-3.56 3.84-2.71.58-25.49 3-33.75.29Z" transform="translate(308 123)"></path><path fill="#0549D2" d="M416.13 198.02c8.26 2.71 31.04.28 33.74-.28 2.7-.57 3.7-3.42 3.56-3.84 0 0 1.42-.05 3.13-1.19s2.28-7.31 2.28-7.31.29 1.23.29 3.32-.67 3.61-.95 4.56c-.28.95 1.61 1.42 1.9 1.33.28-.1-.95.85-2.09 1.04-1.14.19-1.8.85.38 2.18s6.65 8.64 6.65 8.64-4.08-5.13-6.17-6.74c-2.09-1.61-4.75-1.52-7.69-.95-2.94.57-7.12 3.23-17.09 3.32-9.97.09-18.13-3.7-18.13-3.7l.19-.38Z"></path><path fill="#000" d="M408.16 183.79s3.56-.57 8.12-3.42c4.56-2.85 17.09-11.11 24.77-12.39 7.69-1.28 14.81.28 19.08 3.42 4.27 3.13 4.84 4.27 4.84 4.27s-4.56-11.82-17.51-12.81c-12.96-1-26.77 3.27-35.74 9.11-8.97 5.84-6.27 11.39-3.56 11.82Z"></path><path fill="#0549D2" d="M408.02 161.12s.2-.11.58-.3c.37-.19.92-.48 1.62-.82 1.4-.69 3.42-1.65 5.89-2.7 2.47-1.04 5.39-2.18 8.59-3.19 1.6-.5 3.27-.99 4.98-1.38 1.72-.4 3.48-.74 5.26-.97 1.78-.22 3.58-.34 5.35-.27l1.32.09c.44.04.87.11 1.3.17.43.07.85.17 1.27.25.43.09.82.21 1.23.32.8.22 1.6.41 2.37.66.77.24 1.53.45 2.25.71.72.25 1.43.48 2.1.76.34.13.67.26.99.39.32.13.63.28.94.41 1.23.53 2.31 1.11 3.25 1.65.92.57 1.71 1.1 2.3 1.61.6.5 1.03.94 1.29 1.27.26.32.36.52.36.52s-.11-.2-.38-.51c-.26-.32-.71-.74-1.32-1.22-.6-.49-1.4-.99-2.34-1.53-.95-.51-2.04-1.06-3.28-1.54-.31-.12-.62-.26-.94-.38-.33-.12-.66-.23-.99-.35-.67-.25-1.38-.46-2.11-.69-.72-.24-1.48-.43-2.25-.64-.76-.22-1.57-.39-2.38-.59-.4-.09-.82-.2-1.22-.28-.41-.07-.82-.16-1.24-.21-.42-.04-.84-.09-1.27-.13-.43-.02-.86-.03-1.29-.05-1.72-.02-3.48.15-5.21.42-1.74.27-3.46.66-5.13 1.1-1.68.44-3.3.97-4.86 1.51-3.12 1.09-5.97 2.3-8.37 3.4a107.728 107.728 0 0 0-7.3 3.68l-.54.31-.01.01a.85.85 0 1 1-.84-1.48c.02-.01.03-.01.03-.01ZM416.27 180.37c4.56-2.85 17.09-11.11 24.77-12.39 7.69-1.28 14.81.28 19.08 3.42.4.29.77.57 1.1.83.78.66 1.56 1.38 2.31 2.16.3.31-13.38-6.12-29.47.57-16.09 6.69-28.05 23.92-28.05 23.92s1.08-8.81 5.7-16.18c1.3-.52 2.86-1.27 4.56-2.33Z"></path><path fill="#EE30FF" d="M329.28 219.81c0-6.29 5.1-11.39 11.39-11.39 6.29 0 11.39 5.1 11.39 11.39 0 6.29-5.1 11.39-11.39 11.39-6.29 0-11.39-5.1-11.39-11.39Z"></path><path fill="#0549D2" d="M429.09 219.81c0-6.29 5.1-11.39 11.39-11.39 6.29 0 11.39 5.1 11.39 11.39 0 6.29-5.1 11.39-11.39 11.39-6.29 0-11.39-5.1-11.39-11.39Z"></path><path fill="#EE30FF" d="M317.18 230.77s5.97 8.8 18.37 9.97c15.09 1.42 31.18-9.82 31.18-9.82s-7.69 8.4-17.65 11.25c-9.97 2.85-19.65 1-20.22 1.28-.57.28-3.84 3.27 5.98 23.78 9.82 20.5 20.64 43.43 20.64 43.43s-16.37-22.92-24.63-41.57c-8.26-18.65-9.4-26.77-6.69-28.19-.01-.02-5.99-9.7-6.98-10.13Z"></path><path fill="#0549D2" d="M463.83 231.48s-5.97 8.8-18.37 9.97c-15.09 1.42-31.18-9.82-31.18-9.82s7.69 8.4 17.66 11.25c9.97 2.85 19.65 1 20.22 1.28.57.28 3.84 3.27-5.98 23.78-9.82 20.5-20.65 43.43-20.65 43.43s16.37-22.92 24.63-41.57c8.26-18.65 9.4-26.77 6.69-28.19 0-.02 5.98-9.7 6.98-10.13Z"></path><path fill="url(#h)" d="M74.67 67.91s-1.42 22.64-3.42 25.34c-1.99 2.71-12.39 14.81-12.24 19.22.14 4.41 2.99 8.97 2.99 8.97s-2.42-6.69.43-10.39 8.69-11.39 8.97-8.83c.28 2.56-2.42 12.81-.28 16.94 2.14 4.13 9.25 6.98 11.53 6.69 2.28-.28 8.4-2.14 10.54-5.69 2.14-3.56 1.71-6.69 1-11.25s-1.57-7.69 0-6.98 8.97 8.26 9.4 11.96c.43 3.7-.57 7.97-.57 7.97s4.27-5.69 2.28-11.39c-1.99-5.7-11.96-16.09-12.53-20.22-.57-4.13-1.85-22.07-1.99-21.64-.14.43-1.99 22.78-1.14 33.74.85 10.96 2.99 15.95-.57 18.37-3.56 2.42-7.69 1.28-10.68.57-2.99-.71-5.41-2.85-4.27-8.97 1.12-6.11 2.4-37.3.55-44.41Z" transform="translate(308 123)"></path><path fill="#231F20" d="M372.85 244.87s3.13 3.27 5.12 3.84c1.99.57 2.14-2.42-.57-3.42-2.7-.99-4.55-.42-4.55-.42ZM408.07 244.87s-3.13 3.27-5.13 3.84c-1.99.57-2.13-2.42.57-3.42 2.71-.99 4.56-.42 4.56-.42ZM396.73 276.87c-2.1 0-4.33-.04-6.68-.11-22.3-.74-32.27-3.14-32.34-3.16-.3-.1-.46-.42-.36-.72.1-.3.42-.46.72-.36.12.03 10.14 2.38 32.02 3.1 21.03.7 32.05-2.09 32.16-2.12.3-.08.62.1.69.41.08.3-.1.62-.41.69-.09.03-8.94 2.27-25.8 2.27Z"></path><path fill="#FFF" d="M389.48 292.17c-3.7 0-6.9-.3-9.52-.71-7.58-1.16-11.88-3.32-12.06-3.41a.849.849 0 0 1-.37-1.15c.21-.42.73-.59 1.15-.37.08.04 4.32 2.15 11.62 3.26 6.76 1.03 17.61 1.39 30.87-2.74a.854.854 0 0 1 .51 1.63c-8.5 2.65-16.04 3.49-22.2 3.49Z"></path><path fill="#000" d="M395.91 298.26c.4-2.38 1.69-5.18 2.44-6.65-3.2.41-6.17.57-8.88.57-2.95 0-5.58-.2-7.85-.48 1.14 1.75 2.82 5.14 2.05 9.13-1.14 5.84-3.7 9.97-2.85 16.94.85 6.98 3.42 20.65 4.84 21.36 1.42.71 8.26.85 9.25-1.85 1-2.7 4.7-20.07 3.99-24.49-.71-4.42-3.56-11.11-2.99-14.53ZM340.38 243.59s8.4 16.09 11.11 16.66c2.7.57 18.79.57 22.78-1.57 3.99-2.14 4.13-5.7 6.98-7.55 2.85-1.85 7.12.71 8.97 1v7.83s-6.69 8.4-10.39 9.11c-3.7.71-23.49 0-27.48-.57-3.99-.57-8.54-3.84-9.97-6.55-1.42-2.7-10.11-18.37-10.11-18.37h8.11v.01Z"></path><path fill="#000" d="M439.76 244.58s-8.26 15.09-10.96 15.66c-2.71.57-18.79.57-22.78-1.57-3.99-2.14-4.13-5.7-6.98-7.55-2.85-1.85-7.12.71-8.97 1v7.83s6.69 8.4 10.39 9.11c3.7.71 23.49 0 27.48-.57 3.99-.57 8.54-3.84 9.97-6.55 1.42-2.7 9.97-17.51 9.97-17.51l-8.12.15Z"></path><path fill="url(#i)" d="M1.01 90.81S-.67 172.4 4.92 216.54c6.21 49.04 30.18 143.61 85.5 200.05s96.11 64.82 96.11 64.82V.28L1.01 90.81Z" opacity=".2" transform="translate(203 53)"></path><path fill="url(#j)" d="M114.04 449.74c-28.63-37.08-34.27-52.57-32.86-50.22 1.41 2.35 20.18 36.14 74.63 74.63 45.15 31.92 117.85 49.33 117.85 49.33s-68-27.09-114.57-67.64c-25.53-22.23-46.13-52.58-56.5-75.23 0 0-6.12-12.24-8.99-26.98-2.87-14.73 4.11-28.89 4.11-28.89s2.49 1.91 7.37 5.84c4.88 3.92 11.1 8.71 14.35 8.99 3.25.29 18.08-3.44 28.41-6.03 10.33-2.58 21.43-3.83 21.43-3.83s1.05.96 6.5.77c5.45-.19 5.45-6.31 5.45-6.31l-1.82.86c-1.82.86-5.36.48-5.36.48s3.16-.77 2.77-3.83c-.38-3.06-4.4-6.79-4.4-6.79s.67 2.2.1 4.21c-.57 2.01-4.11 2.68-4.11 2.68s.38-1.44-.48-3.83-3.73-4.4-3.73-4.4 1.15 2.97 1.05 4.02c-.1 1.05-3.92 3.16-7.56 2.39-3.64-.77-2.58-6.41-2.58-6.41s-1.05.38-2.49 2.58c-1.43 2.2 3.35 6.22 3.35 6.22s-1.05.29-9.85.48c-8.8.19-25.25.77-25.25.77s-7.94-18.94-13.87-27.93c-5.93-8.99-12.15-12.44-12.15-12.44l59.32-17.36-10.95-30.5s-59.47 34.95-62.43 33.52c-2.97-1.43-8.99-6.79-15.02-16.84-6.03-10.04-5.26-19.42-5.26-19.42s11.48-5.93 25.06-10.24c13.58-4.3 31.19-5.45 31.19-5.45s-2.01 1.53-2.3 5.74c-.29 4.21 5.36 4.97 5.36 4.97s-2.58-4.3-1.05-6.41c1.53-2.1 4.69-1.91 7.94 0s3.16 7.75 3.16 7.75 1.91-1.34 2.58-5.07c.67-3.73-1.43-6.6-1.43-6.6s2.01.1 4.97 2.39c2.97 2.3 2.87 7.37 2.87 7.37s3.64-4.59 2.49-8.32c-1.15-3.73-5.45-6.22-5.45-6.22s1.34-.38 4.02 0c1.8.26 5.55 2.87 5.55 2.87s-.77-7.65-6.7-9.28c-5.93-1.63-11.19.48-11.19.48s-25.25-6.31-54.15.38c-16.61 3.85-29.27 8.99-33.48 12.05-4.21 3.06-8.42 6.7-11.19 22.77-3.22 18.64 5.84 33.1 5.84 33.1s-14.4 19.59-10.14 54.15c5.1 41.37 21.85 70.9 68.47 118.82 33.8 34.73 76.51 58.67 76.51 58.67l6.1-1.88c0-.01-20.44-1.77-61.49-54.93Z"></path><path fill="url(#k)" d="M616.58 448.73c30.72-35.37 37.24-50.51 35.7-48.25-1.54 2.26-22.23 34.92-78.81 70.21-46.92 29.26-109.64 43.08-109.64 43.08s58.59-23.75 107.42-61.55c26.77-20.72 49.08-49.84 60.74-71.85 0 0 6.82-11.87 10.53-26.41 3.71-14.54-2.44-29.08-2.44-29.08s-2.59 1.77-7.69 5.4c-5.1 3.63-11.58 8.05-14.84 8.15-3.26.1-17.85-4.48-28.02-7.65-10.16-3.17-21.17-5.06-21.17-5.06s-1.1.89-6.54.39c-5.43-.51-5.08-6.62-5.08-6.62l1.77.96c1.76.96 5.32.79 5.32.79s-3.11-.95-2.55-3.98c.56-3.03 4.78-6.53 4.78-6.53s-.8 2.16-.34 4.2 3.95 2.91 3.95 2.91-.3-1.46.7-3.79c1-2.34 3.98-4.18 3.98-4.18s-1.32 2.89-1.28 3.95c.03 1.06 3.73 3.38 7.41 2.82 3.67-.55 2.95-6.25 2.95-6.25s1.03.44 2.33 2.72c1.31 2.28-3.7 6.01-3.7 6.01s1.03.35 9.81 1.05c8.78.7 25.17 2.22 25.17 2.22s9.02-18.45 15.46-27.09c6.44-8.64 12.85-11.72 12.85-11.72l-40.11-16.21 26.54-25.21s25.39 29.17 28.44 27.9c3.04-1.26 9.37-6.26 15.96-15.94 6.6-9.68 6.37-19.08 6.37-19.08s-11.12-6.58-24.43-11.66-30.82-7.24-30.82-7.24 1.92 1.64 1.96 5.86c.04 4.22-5.63 4.66-5.63 4.66s2.83-4.15 1.42-6.34c-1.41-2.19-4.57-2.18-7.93-.46-3.36 1.72-3.6 7.55-3.6 7.55s-1.83-1.45-2.29-5.21c-.45-3.76 1.81-6.51 1.81-6.51s-2.01-.02-5.1 2.1-3.29 7.19-3.29 7.19-3.36-4.79-2-8.45c1.36-3.66 5.8-5.89 5.8-5.89s-1.32-.46-4.01-.23c-1.81.15-5.7 2.55-5.7 2.55s1.21-7.6 7.22-8.88c6.02-1.28 11.15 1.12 11.15 1.12s25.58-4.85 54.03 3.5c16.36 4.8 28.71 10.66 32.73 13.96 4.03 3.3 8.02 7.17 9.86 23.38 2.14 18.8-7.73 32.71-7.73 32.71s13.25 20.38 7 54.64c-7.48 41-25.9 69.52-75.2 114.67-35.74 32.73-65.62 50.99-65.62 50.99l-3.76-2.82c-.02.01 4.12 3.2 48.16-47.5Z"></path><path fill="url(#l)" d="M17.94 153.7s3.31-147.01 3-149.02C20.63 2.67 19.97.1 19.97.1s-1.41 2.29-1.86 5.56C17.66 8.92 9.5 154.17 9.5 154.17l8.44-.47Z" transform="translate(284 186)"></path><path fill="#FFF" d="m303.97 186.1-7.67 153.91h-5l10.01-149.58z"></path><path fill="#000" d="M357.32 424.58s-.89 8.82-.67 14.98c.22 6.16 1.98 14.96 1.98 14.96s2.2-3.08 9.9-1.98 7.92 3.3 7.92 3.3 7.7-18.04 9.24-24.21c1.54-6.16 3.96-10.78 3.96-10.78s-2.86-4.84-4.18-7.7c-1.32-2.86-2.2-5.5-2.2-5.5l-10.46 20.45s-9.54-.44-15.49-3.52ZM393.25 427.16s5.21 17.35 7.74 22.52c2.53 5.17 4.84 7.92 4.84 7.92s2.64-3.74 6.93-4.84c4.29-1.1 7.92-1.54 7.92-1.54s-16.79-11.26-27.43-24.06Z"></path><path fill="url(#m)" d="M121.83 179.6s-.77 2.09-.33 4.95c.44 2.86 1.76 4.84 1.76 4.84s5.72 2.86 11 1.21 6.16-4.51 6.16-4.51 1.21-2.86.88-6.16c-.33-3.3-.55-3.85-.55-3.85l-4.07-2.86c.01 0-12.76.77-14.85 6.38Z" transform="translate(284 278)"></path><path fill="url(#n)" d="M123.26 189.4s-.33 5.94 1.76 11.11c2.09 5.17 7.59 15.73 10.34 23.22 2.75 7.48 3.41 14.74 4.07 18.59.66 3.85.11 5.72.11 5.72s3.41 1.43 6.93.88c3.52-.55 7.15-3.3 7.15-3.3l-2.2-7.7s-3.41-11.11-3.41-16.72c0-5.61-1.43-23.33-3.41-27.4-1.98-4.07-4.18-7.7-4.18-7.7s-2.97 4.18-6.82 4.84c-3.85.66-8.47-.33-10.34-1.54Z" transform="translate(284 278)"></path><path fill="#FFF" d="M415.84 451.41s3.13 7.51 3.44 9.7c.31 2.19.94 6.88.94 6.88l12.2 58.52 3.88-2.13-5.13-22.91-3.13-28.48-3.62-8.91s-.45-6.42-.45-8.3c0-1.88-3.29-4.57-3.29-4.57" opacity=".4"></path><path fill="#000" d="M423.55 526.04s-2.09 3.85-3.19 5.17c-1.1 1.32-3.96 5.39-4.07 7.37-.11 1.98 2.75 5.06 2.75 5.06s3.52 1.21 11 .11c7.48-1.1 9.79-3.96 10.12-5.94.33-1.98-.11-4.51-.66-6.38s-3.19-7.04-3.19-7.04-4.41 2.52-6.27 2.64c-3.41.22-6.49-.99-6.49-.99Z"></path><path fill="url(#o)" d="M99.28 129.65s-4.62 11.22-6.38 16.72l-1.76 5.5s-8.36-.44-13.2-2.2c-4.84-1.76-11.49-7.87-11.49-7.87s4.89-15.9 7.53-22.72c2.64-6.82 5.28-10.56 5.28-10.56s4.62 5.94 10.12 7.48c5.5 1.54 6.82 1.76 6.82 1.76s1.76 9.91 3.08 11.89Z" transform="translate(284 278)"></path><path fill="#FFF" d="m375.14 429.88 1.76-5.5c1.76-5.5 6.38-16.72 6.38-16.72-.4-.6-.85-1.95-1.27-3.52l-9.19 23.97s-3.76-.23-9.62-2.35c-4.6-1.66-10.07-5.92-12.22-7.67-.34 1.08-.54 1.73-.54 1.73s6.65 6.11 11.49 7.87c4.84 1.75 13.21 2.19 13.21 2.19Z"></path><path fill="#000" d="M346.64 328.76s-10.89 9.35-11.77 11.44c-.88 2.09-1.54 3.85-1.54 3.85s-4.95 2.2-7.92 5.06c-2.97 2.86-5.06 6.38-5.06 6.38s10.56 3.85 10.78 7.26c.22 3.41 0 8.47 0 8.47s2.53-2.09 4.51-4.18 2.97-1.47 3.96-2.64c2.02-2.38 5.61-5.28 7.26-7.59 1.65-2.31 2.09-3.08 2.75-3.08.66 0 1.98.07 1.98.07l3.74-11.74-3.52-13.64-5.17.34Z"></path><path fill="url(#p)" d="M79.25 108.53s2.86-5.43 2.86-7.34c0-1.91-.44-7.19-1.76-8.8-1.32-1.61-5.13-4.99-6.75-7.34-1.61-2.35-6.01-9.24-6.01-9.24s2.05-6.46 2.05-7.04c0-.58 4.69-25.53 4.69-25.53s13.79 7.34 22.89 2.49c9.09-4.84 15.48-14.89 15.48-14.89l16.36 14.6 11.88 62.64-35.8 11.3-8.95-1.61c.01 0-10.26-1.03-16.94-9.24Z" transform="translate(284 278)"></path><path fill="url(#q)" d="M111.89 30.63s6.68-3.37 18.34-.15c13.79 3.81 19.95 15.7 19.95 15.7s-7.19-.29-12.76-.59c-5.57-.3-11.43.32-11.43.32s-7.49-4.28-9.25-5.75c-1.76-1.47-3.08-4.11-3.08-4.11l-1.77-5.42Z" transform="translate(284 278)"></path><path fill="url(#r)" d="M82.76 55.95s25.09-9.83 42.54-11.15c17.46-1.32 37.68 6.73 37.68 6.73s7.08 57.3 3.91 79.6c-4.25 29.93-21.28 45.02-21.28 45.02s-34.83-15.97-45.61-39.52c-10.79-23.54-17.24-80.68-17.24-80.68Z" transform="translate(284 278)"></path><path fill="#FFF" d="M369.34 334.89s25.09-9.83 42.54-11.15c17.46-1.32 38.14 3.52 38.14 3.52s6.62 60.51 3.45 82.81c-4.25 29.93-22.37 47.9-22.37 47.9s-33.74-18.85-44.52-42.4c-10.78-23.54-17.24-80.68-17.24-80.68Z"></path><path fill="url(#s)" d="M86.51 58.43s24.39-9.56 41.37-10.84c16.98-1.28 37.09 3.42 37.09 3.42s6.44 58.84 3.35 80.53c-4.14 29.1-21.75 46.58-21.75 46.58s-32.81-18.33-43.29-41.23c-10.49-22.9-16.77-78.46-16.77-78.46Z" transform="translate(284 278)"></path><path fill="url(#t)" d="M126.28 47.73c-16.86 1.73-39.76 10.7-39.76 10.7s6.28 55.56 16.76 78.46c10.48 22.9 43.29 41.23 43.29 41.23l.21-.21-20.5-130.18Z" opacity=".5" transform="translate(284 278)"></path><path fill="url(#u)" d="M74.63 176.52s-.88 1.39-1.47 4.18-.44 4.84-.44 4.84 6.01 3.37 11.44 3.67c5.43.29 5.87-.73 5.87-.73s2.2-3.81 2.49-5.87c.29-2.05-.07-4.77-.07-4.77s-2.57-2.86-7.92-3.3c-5.35-.44-8.29.29-9.9 1.98Z" transform="translate(284 278)"></path><path fill="url(#v)" d="M72.72 185.54c-.45-.26-2.82 6.38-2.93 19.36-.11 12.98.33 26.74-.33 30.04-.66 3.3-1.76 7.81-1.76 7.81s3.19 2.42 6.6 2.2c3.41-.22 5.94-1.76 5.94-1.76s.66-8.25 1.98-12.65c1.32-4.4 6.82-19.14 7.81-23.33.99-4.18 1.76-10.12 1.32-12.54-.44-2.42-1.32-6.2-1.32-6.2s-7.81 2.47-17.31-2.93Z" transform="translate(284 278)"></path><path fill="#FFF" d="m365.77 453.29-2.19 12.52-6.88 56.64-4.38-.63 2.5-10.01s-.63-38.49.63-42.87l1.25-4.38s0-8.45 3.13-10.33c3.13-1.88 5.94-.94 5.94-.94Z" opacity=".4"></path><path fill="#000" d="M351.7 520.76s-3.78 5.06-5.68 6.53c-1.91 1.47-7.85 5.06-8.58 6.6-.73 1.54-.66 4.69.22 5.57.88.88 5.5 1.91 10.27.73 4.77-1.17 6.97-4.11 8.88-5.35 1.91-1.25 5.72-4.18 5.94-4.55.22-.37.59-3.23.66-4.77.07-1.54-.59-3.74-.59-3.74s-6.98 2.28-11.12-1.02Z"></path><path fill="url(#w)" d="m38.84 74.34-18.19-2s1.75 3.85 1.05 6.29c-.7 2.43-1.81 4.39-1.81 4.39l26.58 11.03s3.48-7.43 2.55-10.14c-1.97-5.75-10.18-9.57-10.18-9.57Z" transform="translate(284 278)"></path><path fill="url(#x)" d="M74.19 40.9s-10.92.11-16.72 3.67c-8.36 5.13-7.92 14.67-7.92 14.67s7.04-6.01 10.86-7.04c3.82-1.03 5.13-.88 5.13-.88s-3.96 5.87-2.49 10.86c1.47 4.99 6.6 6.6 6.6 6.6s3.96-12.91 5.28-16.87c1.32-3.96 1.32-4.11 1.32-4.11l-2.06-6.9Z" transform="translate(284 278)"></path><path fill="url(#y)" d="M74.19 40.9s2.42-7.41-.88-19.07c-2.17-7.65 1.32-18.7 6.6-20.46 5.28-1.76 9.68-.88 14.74 2.86 5.06 3.74 7.7 18.48 9.24 21.12 1.54 2.64 8.8 5.5 8.8 5.5s-.22 13.28-18.26 18.26c-15.71 4.34-23.33-7.34-23.33-7.34l3.09-.87Z" transform="translate(284 278)"></path><path fill="url(#z)" d="m71.99 22.05 14.52-.22 14.09-10.35 3.96 12.99-11.66 20.9-19.37-14.3z" transform="translate(284 278)"></path><path fill="#000" d="m358.85 302.25 12.1.22 11.45-9.03.22 3.96-10.57 8.59-12.54-1.32zM297.87 346.58l-1.19 21.35-.81 1.11-3.16-1.69 1.05-21.55z"></path><path fill="#000" d="M296.68 367.93s1.46 2.22.84 4.76c-.62 2.53-2.23 4.16-4.43 3.63-2.21-.53-2.46-3.34-2-5.41.46-2.07 1.63-3.56 1.63-3.56l3.16 1.69.8-1.11ZM302.17 344.55s6.55-4.5 5.4-4.93c-1.15-.43-22.5-.32-22.77 0-.26.32 2.36 4.09 3.81 4.5 1.44.4 13.56.43 13.56.43Z"></path><path fill="#1A0C4D" d="M304.03 361.06s-3.14.83-5.34.81c-2.2-.02-3.45-.94-3.45-.94l2.03-11.96-.86-.43s-2.01 2.23-3.59 1.74-3.22-2.13-2.2-3.3 3.83-2.76 4.92-3.29c1.09-.53 1.06-.88 1.38-.8.32.08 6.4 1.37 6.4 2.79 0 1.41.58 3.48 1.11 4.57.53 1.09 1.76 4.44 1.35 6.15-.41 1.7-1.75 4.66-1.75 4.66Z"></path><path fill="#1A0C4D" d="M294.63 344.14s-4.69-1.19-5.91-1.08c-1.21.1-2.72 1.44-2.51 2.68.21 1.24.87 2.02.87 2.02s-1.8.64-2.04 1.89c-.24 1.24 1.4 3.34 1.4 3.34s-1.27.83-.94 2.26c.33 1.44 2.34 2.49 2.34 2.49s-.25 2.2 1.28 2.91 1.89.85 3.99.57c2.11-.29 3.72-1.82 3.43-2.74-.29-.92-1.29-1.22-1.29-1.22s1.03-.77.64-1.94c-.4-1.17-1.07-1.67-1.07-1.67s.94-.62 1.17-2.04c.23-1.42-.55-2.17-.55-2.17s-1.88 1.24-3.2.59c-1.31-.66-2.74-2.02-1.88-3 .88-.99 4.27-2.89 4.27-2.89Z"></path><path fill="url(#A)" d="M90.77 60.95s22.27-8.73 37.77-9.9c15.5-1.17 33.86 3.13 33.86 3.13s5.88 53.72 3.06 73.52c-3.78 26.57-19.86 42.52-19.86 42.52s-29.96-16.74-39.53-37.64c-9.57-20.9-15.3-71.63-15.3-71.63Z" transform="translate(284 278)"></path><path fill="url(#B)" d="m126.84 51.37 18.77 118.85s21.92-21.22 20.98-60.34c-.94-39.12-4.18-55.71-4.18-55.71s-26.5-5.93-35.57-2.8Z" transform="translate(284 278)"></path><path fill="#FFF" d="M377.98 338.13s8.45 65.4 17.21 76.98c8.76 11.58 34.41 33.11 34.41 33.11s-35.04-20.91-41.92-42.19c-6.88-21.28-12.91-67.09-12.91-67.09l3.21-.81Z"></path><path fill="#000" d="M218.22 432.64s-10.88 15.9-11.16 16.6c-.28.7-8.69-1.68-11.77-4.48-3.08-2.8-4.62-4.76-4.62-4.76l6.11-13.3 21.44 5.94Z"></path><path fill="url(#C)" d="m52.8 186.06 1.62-10.33c2.2 1.42 8.93 10.18 23.78 7.98 11.44-1.69 19.5-.59 25.01-3.08l.3-.03s1.82 7.99 1.96 11.35c.14 3.36 1.54 31.24 1.54 31.24s-13.53 9.16-30.12 7.42c-26.54-2.78-40-14.2-40-14.2l15.91-30.35Z" transform="translate(153 207)"></path><path fill="url(#D)" d="m58.77 180.85-2.66 9.95-13.45 15.97h-7.85s7.85-18.35 10.65-23.11c2.8-4.76 4.06-5.88 4.06-5.88s4.34 2.93 9.25 3.07Z" transform="translate(153 207)"></path><path fill="#FFF" d="m207.75 397.12-14.64 16.64h2.55l13.45-15.97 2.66-9.95c-.36-.01-.72-.04-1.08-.08l-.59.59-2.35 8.77Z"></path><path fill="url(#E)" d="M76.49 184.17c11.32-1.68 21.04-1.46 26.57-3.94l.46-.11s1.26 3.5 1.68 7.28c.42 3.78 1.4 24.24 1.4 24.24l-19.01 6.01-21.76-23.81-1.4-10.09.94-.22c2.92.06 7.07 1.24 11.12.64Z" transform="translate(153 207)"></path><path fill="#FFF" d="M259.6 418.65s-.03-.7-.09-1.86l-18.28 5.99-21.28-22.53-1.25-8.29-.93-1.27-.33.08 1.4 10.09 21.76 23.81 19-6.02Z"></path><path fill="#000" d="M257.08 431.58v19.33s-8.69 3.5-13.17 2.66c-4.48-.84-6.86-3.08-6.86-3.08l-1.96-13.31c-.01.01 12.46-.97 21.99-5.6Z"></path><path fill="url(#F)" d="m113.04 260.03-8.27 15.55-7.57-5.88s-11.49-12.89-12.47-15.69c-.98-2.8-.7-10.51-.7-10.51s5.18 3.08 7.99 3.36c2.8.28 9.25-2.38 9.25-2.38s.98-5.32 1.54-6.44 3.92-3.5 5.18-2.8c1.26.7.14 8.13.14 8.13s1.26 1.4 2.66 3.22c1.4 1.82 2.1 5.32 2.1 5.32l.15 8.12Z" transform="translate(153 207)"></path><path fill="url(#G)" d="m112.95 259.65-8.17 15.92s2.29 3.69 5.09 9.76 1.87 12.23 1.87 12.23 7.85.56 10.55 0c2.71-.56 7.38-.75 7.38-.75l1.59-1.12.19-7.01s-7.85-5.7-9.62-8.5c-1.77-2.8-2.62-8.78-4.11-15.13-1.49-6.35-4.86-12.61-4.86-12.61l.09 7.21Z" transform="translate(153 207)"></path><path fill="url(#H)" d="m129.11 296.82-.28 8.59s-1.77 8.87-3.27 9.9c-1.49 1.03-7.19 2.62-9.99 2.52-2.8-.09-4.11-.37-4.11-.37s-3.08-4.76-2.62-6.63c.47-1.87 3.27-7.66 3.74-9.15.47-1.49 1.12-4.02 1.12-4.02s6.82.47 15.41-.84Z" transform="translate(153 207)"></path><path fill="#000" d="m278.19 521.38 3.64-9.71.02.02-.02.73s-1.77 8.87-3.27 9.9c-1.49 1.03-7.19 2.62-9.99 2.52-1.38-.05-2.4-.14-3.08-.22 5.8-.76 12.7-3.24 12.7-3.24Z"></path><path fill="url(#I)" d="m54.07 242.23.89 6.68-2.8 10.93-15.04 5.51s-2.43-7.19-2.43-7.56c0-.37.28-9.9.28-9.9s-1.49-3.83-1.4-6.07c.09-2.24 2.43-8.03 2.43-8.03l1.68-1.12s3.08 4.58 7.19 6.72c4.11 2.14 9.2 2.84 9.2 2.84Z" transform="translate(153 207)"></path><path fill="url(#J)" d="M33.57 241.81c.09-2.24 2.43-8.03 2.43-8.03l1.68-1.12s3.08 4.58 7.19 6.72c4.11 2.15 9.2 2.85 9.2 2.85l.89 6.68s-15.68 0-20.09-1.32c-.35-.93-1.38-3.9-1.3-5.78Z" transform="translate(153 207)"></path><path fill="url(#K)" d="M92.03 246.86c2.8.28 9.25-2.38 9.25-2.38s.98-5.32 1.54-6.44 3.92-3.5 5.18-2.8c1.26.7.14 8.13.14 8.13s1.26 1.4 2.66 3.22c1.04 1.36 1.7 3.65 1.96 4.73l-5.82 8.44-8.76 5.32-5.97-1.14c-3.23-3.81-6.93-8.39-7.47-9.93-.98-2.8-.7-10.51-.7-10.51s5.19 3.08 7.99 3.36Z" transform="translate(153 207)"></path><path fill="#FFF" d="m243.91 453.58 8.04 18.64 5.83 10.36-7.57-5.89L237.75 461l-.59-9.66z" opacity=".4"></path><path fill="url(#L)" d="M54.95 248.91s1.4 1.4-.37 7.75l-5.7 20.45s.09 5.32.09 6.26c0 .93 2.43 7.57 2.43 8.59 0 1.03-.56 2.99-1.59 3.92-1.03.93-2.62 2.61-2.62 2.61l-4.2-.84-12.33-8.03-2.43-3.55s5.32-8.22 5.98-11.02c.65-2.8 1.4-14.29 1.4-14.29l1.49 4.57 15.04-5.51 2.81-10.91Z" transform="translate(153 207)"></path><path fill="url(#M)" d="M47.2 298.51s.09 3.08-1.87 4.2c-1.96 1.12-2.71 1.03-4.02 1.03-1.31 0-8.59.19-8.59.19s-14.76 4.3-18.87 4.11c-4.11-.19-6.91-1.49-6.91-1.49s.09-2.43 3.36-4.86 14.76-8.22 16.9-9.99c2.15-1.77 2.8-3.08 2.8-3.08l.65 1.03 12.33 8.03 4.22.83Z" transform="translate(153 207)"></path><path fill="#000" d="M194.88 508.49c2.41-.44 3.85-2.36 4.36-3.18l.96.19s.09 3.08-1.87 4.2c-1.96 1.12-2.71 1.03-4.02 1.03-1.31 0-8.59.19-8.59.19s-14.76 4.3-18.87 4.11c-.75-.03-1.46-.11-2.11-.2 3.75-.8 27.3-5.82 30.14-6.34Z"></path><path fill="url(#N)" d="m67.06 116.33-18.47 5.8s-2.37 7.46-4.84 11.86c-2.48 4.4-3.1 6.36-3.1 6.36l19.99-4.46s1.15-10.43 3.11-14.57c1.95-4.12 3.31-4.99 3.31-4.99Z" transform="translate(153 207)"></path><path fill="url(#O)" d="M63.32 123.35s-3.71.12-6.86-1.53l-3.15-1.65s4.67-5.86 10.13-6.72c5.46-.86 12.31-.21 12.31-.21l-2 1.3-7.54 2.11c-.01.01-2.6 4.42-2.89 6.7Z" transform="translate(153 207)"></path><path fill="url(#P)" d="M108.27 143.91s-6.24 13.96-7.23 16.45c-.99 2.49-1.57 5.09-1.57 5.09s-11.15 1.38-23.73-.98-16.53-4.34-16.53-4.34-.84-6.32-.24-13.16c2.42-27.49 7.95-30.94 7.95-30.94l5.53-1.29 26.12 6.23 9.7 22.94Z" transform="translate(153 207)"></path><path fill="#FFF" d="m224.49 327.18 1.72-5.95-6.3 1.78s-5.52 3.46-7.95 30.94c-.6 6.84.24 13.16.24 13.16s1.66.83 6.24 2.06c1.69-13.28 6.05-41.99 6.05-41.99Z" opacity=".5"></path><path fill="#000" d="m252.38 375.34.08-2.89s-12.48 1.45-25.93-1.45-14.34-3.87-14.34-3.87l-1.2 2.72c.01 0 18.35 6.74 41.39 5.49Z"></path><path fill="url(#Q)" d="M98.58 110.16s2.59-5.77 3.33-7.02c.74-1.25 6.06-11.59 4.33-17.51-1.74-5.92-8.78-9.15-14.35-8.68-5.57.48-7.01 2.5-7.01 2.5l-.69-2.72s-4.21 2.89-6.69 7.24c-2.48 4.35-3.38 7.2-3.38 7.2l-4.93-.41s3.59 14.88 4.87 16.2c1.28 1.33 3.17 2.54 3.17 2.54l-2.83 3.86c0 .01 15.47.17 24.18-3.2Z" transform="translate(153 207)"></path><path fill="#000" d="M251.58 317.16c-8.71 3.38-24.18 3.21-24.18 3.21l2.83-3.86s16.03-1.11 22.69-2.29c-.72 1.55-1.34 2.94-1.34 2.94Z"></path><path fill="url(#R)" d="M99.19 86.01c.89-.84 5.55.83 3.26 4.48-1.83 2.91-10.12 9.89-10.12 9.89l-15.1 9.13s-1.89-1.21-3.17-2.54-4.87-16.2-4.87-16.2l4.93.41 17.16 1.49s7.47-6.25 7.91-6.66Z" transform="translate(153 207)"></path><path fill="#1A0C4D" d="M254.64 296.46a1.68 1.68 0 0 0-1.16-2.07 1.68 1.68 0 0 0-2.07 1.16 1.679 1.679 0 0 0 3.23.91Z"></path><path fill="#000" d="m240.44 299.1.1-1.14-12.92-.86-.5 1.07z"></path><path fill="url(#S)" d="m98.77 110.33 5.92 5.88s-12.44 5.97-20.43 5.91c-7.99-.06-13.49-1.96-13.49-1.96l1.67-5.43 1.96-1.37s11.2-.49 14.85-.98c2.4-.32 9.33-2.23 9.33-2.23l.19.18Z" transform="translate(153 207)"></path><path fill="url(#T)" d="M104.69 116.21s12.74 2.27 15.22 6.45c3.26 5.5 1.44 9.64 1.44 9.64s-.45-1-2.46-1.34c-2.01-.35-3.19-.31-3.19-.31s-4.7.94-5.61 4.97c-.91 4.04-.19 8.46-.19 8.46s-8.14-1.15-13.06-3.71c-5.4-2.82-8.43-12.79-6.11-16.14 2.32-3.35 3.03-3.81 3.03-3.81s8.48-2.49 10.93-4.21Z" transform="translate(153 207)"></path><path fill="url(#U)" d="m120.73 131.91.92 2.95s-9.62 2.9-9.78 2.71c-.16-.19-1.21-3.47-1.21-3.47l8.97-2.94 1.1.75Z" transform="translate(153 207)"></path><path fill="url(#V)" d="M119.14 131.1c-.25-.14-2.34-.73-4.72-.02s-3.55 2.79-3.55 2.79l8.27-2.77Z" transform="translate(153 207)"></path><path fill="url(#W)" d="m121.19 134.95 2.32 5.45-8.71 2.29-2.34-5.17z" transform="translate(153 207)"></path><path fill="url(#X)" d="m123.05 140.49 2.23 5.28-7.68 2.5-2.38-5.54z" transform="translate(153 207)"></path><path fill="url(#Y)" d="M125.61 147.97s-.47.38-1.45 1.56c-.99 1.18-1.08 3.84-1 4.08.08.24-3.59-.93-3.59-.93s-1.35-2.71-1.38-3.37c-.03-.66 6.67-3.29 6.67-3.29l.75 1.95Z" transform="translate(153 207)"></path><path fill="url(#Z)" d="M131.56 161.5s-5.66-4.72-7.06-6.2c-1.4-1.48-1.35-1.69-1.35-1.69s-.12-2.43 1-4.08 2.46-1.78 2.46-1.78 3.66 1.75 4.95 13.75Z" transform="translate(153 207)"></path><path fill="url(#aa)" d="M119.56 152.68s-2.83-.79-5.51-1.11c-2.68-.31-3.47.19-3.42-.01.06-.2-3.14-5.68-3.14-5.68l.77-1.97 1.63.17s-.63-3.45-.22-5.95c.41-2.5.98-4.02.98-4.02s7.24 7.12 7.17 7.39c-.08.27 3.82 6.89 3.74 7.16-.08.27.08 4.39-.26 4.29-.33-.09-1.74-.27-1.74-.27Z" transform="translate(153 207)"></path><path fill="url(#ab)" d="M131.56 161.5s.2 2.67-.48 3.79c-.68 1.12-4.33 5.84-4.33 5.84s-4.03.11-5.82-.25-3.1-.87-3.1-.87 8.77-4.02 9.36-5.38c.6-1.36 1.13-3.76 1.13-3.76l-3.07-4.86 6.31 5.49Z" transform="translate(153 207)"></path><path fill="url(#ac)" d="M118.22 169.91c-.2-.06-3.62.44-4.9.08-1.28-.36-4.03-2.22-4.03-2.22s4.13-2.26 4.46-3.19c.33-.93 1.72-4.83 1.34-5.81-.38-.98-4.45-7.21-4.45-7.21s4.03-.11 6.73.65 5.79 1.4 5.79 1.4l5.16 7.27-1.13 3.76-8.97 5.27Z" transform="translate(153 207)"></path><path fill="#1A0C4D" d="m263.95 373.38-4.98.55s-4.97-3.67-5.25-4.01c-.29-.35-.27-1.13-.01-1.36.26-.23.62-.23.62-.23s-1.2-1.11-.7-1.79c.5-.68.8-.77.8-.77s-1.82-.87-1.31-1.99l.51-1.11s-.86-.68-.94-1.34l-.08-.66 4.06-1.31 4.26-1.91s2.96-.46 3.23-.05c.27.41 4.95 6.89 4.95 6.89l-1.05 6.15c0-.01-3.32 2.6-4.11 2.94Z"></path><path fill="#000" d="m262.55 373.57 1.29 5.32-.39 1.11-3.02-.63-1.45-5.44z"></path><path fill="#000" d="M263.84 378.89s1.75 1.48 1.86 3.72c.11 2.24-.82 3.98-2.77 4.08-1.95.1-2.84-2.16-2.97-3.97-.13-1.81.47-3.34.47-3.34l3.02.62.39-1.11ZM262.07 357.18s1.94-3.18.88-3.25c-1.06-.07-12.88 4.21-13.02 4.54-.14.33 1.73 2 3.02 1.98 1.3-.01 9.12-3.27 9.12-3.27Z"></path><path fill="url(#ad)" d="M105.91 148.17S70.63 5.66 69.88 4.07C69.13 2.49 67.96.53 67.96.53s-.6 2.24-.18 5.04 33.65 144.18 33.65 144.18l4.48-1.58Z" transform="translate(153 207)"></path><path fill="#FFF" d="m256.85 355.99-35.89-148.45 2 2.8 35.95 144.83"></path><path fill="url(#ae)" d="M57.24 93.28s-15.09-6.41-20.88-8.69c-5.79-2.28-10.81-3.03-10.81-3.03S.73 167.74.31 170.02c-.42 2.28.38 4.46 1.72 4.73 1.34.27 16.08-.61 29.31-14.77 6.76-7.23 14.08-26.12 19.73-43.16 5.65-17.04 6.17-23.54 6.17-23.54Z" transform="translate(153 207)"></path><path fill="#FFF" d="M177.08 293.15s5.16.7 12.91 3.76c7.74 3.05 12.91 5.87 12.91 5.87s-5.87 24.88-10.56 36.85c-4.69 11.97-13.14 26.52-13.14 26.52s12.44-15.26 19.01-37.55c6.57-22.29 7.27-26.05 7.27-26.05s-12.62-8.2-27.89-10.56" opacity=".7"></path><path fill="url(#af)" d="M1.04 167.31c.07.59.18 1.15.35 1.6.76 1.96 9.04 1.55 19.37-5.35 10.33-6.91 15.88-20.49 19.84-29.95 3.96-9.46 11.87-38.07 11.87-38.07s-7.27-4-14.02-6.33c-4.42-1.52-10.32-3.23-13.87-4.23.63-2.18.98-3.42.98-3.42s5.02.75 10.81 3.03c5.79 2.28 20.88 8.69 20.88 8.69s-.51 6.5-6.17 23.54c-5.65 17.04-12.97 35.93-19.73 43.16-13.23 14.16-27.97 15.04-29.31 14.77-1.34-.27-2.14-2.45-1.72-4.73.04-.21.29-1.16.72-2.71Z" transform="translate(153 207)"></path><path fill="url(#ag)" d="M99.38 168.34s2.54 4.93 3.59 9.01c1.04 4.07 1.79 7.63 1.79 7.63s-14.49 3.94-33.46 1.53-22.95-9.49-22.95-9.49l3.07-5.25 7.52-8.66c.01 0 16.38 6.48 40.44 5.23Z" transform="translate(153 207)"></path><path fill="url(#ah)" d="M48.84 176.19c7.13 7.02 19.77 9.78 34.7 9.63 14.08-.15 19.85-2.1 20.86-2.49.23 1.02.36 1.64.36 1.64s-14.49 3.94-33.46 1.53-22.95-9.49-22.95-9.49l.49-.82Z" transform="translate(153 207)"></path><path fill="url(#ai)" d="M30.36 131.86s2.24 15.13 2.52 17.79c.28 2.66.14 5.32.14 5.32s10.37 4.34 23.12 5.46c12.75 1.12 17.09.28 17.09.28s2.38-5.88 3.78-12.61c1.4-6.72.7-31.94.7-31.94l-4.97-2.73-26.83-1.05-15.55 19.48Z" transform="translate(457 204)"></path><path fill="url(#aj)" d="m78.7 180.61-.45-.05c-2.2 1.42-8.93 4.49-23.79 2.29-11.44-1.69-20.67-5.18-26.18-7.67l-.3-.03s-1.82 7.99-1.96 11.35c-.14 3.36-1.54 31.24-1.54 31.24s13.45 7.01 30.12 7.42c16.67.42 37.97-2.24 37.97-2.24L78.7 180.61Z" transform="translate(457 204)"></path><path fill="url(#ak)" d="m69.14 183.07 2.66 9.95 13.45 15.97h7.85s-7.85-18.35-10.65-23.11c-2.8-4.76-4.06-5.88-4.06-5.88s-4.35 2.93-9.25 3.07Z" transform="translate(457 204)"></path><path fill="#FFF" d="m529.9 396.65-2.28-9.72c-.49.07-.99.12-1.49.13l2.66 9.95 13.45 15.97h7.85s-.11-.25-.3-.71l-7.21-.76-12.68-14.86Z"></path><path fill="url(#al)" d="M54.46 182.38c-11.32-1.68-20.49-5.11-26.02-7.6l-.46-.11s-1.26 3.5-1.68 7.28c-.42 3.78-1.4 24.24-1.4 24.24l13.17 6.86 26.34-19.61 1.4-10.09-.94-.22c-2.92.06-6.36-.15-10.41-.75Z" transform="translate(457 204)"></path><path fill="#FFF" d="m495.33 415.11-13.31-7.19c-.07 1.41-.11 2.27-.11 2.27l13.17 6.86 26.34-19.61 1.4-10.09-.94-.22-1.82 9.19"></path><path fill="#000" d="M484.42 423.13v19.33s8.69 3.5 13.17 2.66c4.48-.84 6.86-3.08 6.86-3.08l1.96-13.31c.01.01-12.46-.97-21.99-5.6ZM526.17 428.88s7.99 11.21 8.27 11.91c.28.7 8.69-1.68 11.77-4.48 3.08-2.8 4.62-4.76 4.62-4.76l-2.52-4.9-22.14 2.23Z"></path><path fill="url(#am)" d="m18.46 254.58 8.27 15.55 7.57-5.88s11.49-12.89 12.47-15.69c.98-2.8.7-10.51.7-10.51s-5.18 3.08-7.99 3.36c-2.8.28-9.25-2.38-9.25-2.38s-.98-5.32-1.54-6.44-3.92-3.5-5.18-2.8c-1.26.7-.14 8.13-.14 8.13s-1.26 1.4-2.66 3.22c-1.4 1.82-2.1 5.32-2.1 5.32l-.15 8.12Z" transform="translate(457 204)"></path><path fill="url(#an)" d="m18.55 254.2 8.17 15.92s-2.29 3.69-5.09 9.76-1.87 12.23-1.87 12.23-7.85.56-10.55 0c-2.71-.56-7.38-.75-7.38-.75l-1.59-1.12-.19-7.01s7.85-5.7 9.62-8.5c1.77-2.8 2.62-8.78 4.11-15.13 1.49-6.35 4.86-12.61 4.86-12.61l-.09 7.21Z" transform="translate(457 204)"></path><path fill="url(#ao)" d="m2.39 291.38.28 8.59s1.77 8.87 3.27 9.9c1.49 1.03 7.19 2.62 9.99 2.52 2.8-.09 4.11-.37 4.11-.37s3.08-4.76 2.62-6.63c-.47-1.87-3.27-7.66-3.74-9.15-.47-1.49-1.12-4.02-1.12-4.02s-6.82.46-15.41-.84Z" transform="translate(457 204)"></path><path fill="#000" d="m463.31 512.93-3.64-9.71-.02.02.02.73s1.77 8.87 3.27 9.9c1.49 1.03 7.19 2.62 9.99 2.52 1.38-.05 2.4-.14 3.08-.22-5.8-.76-12.7-3.24-12.7-3.24Z"></path><path fill="url(#ap)" d="m77.43 236.79-.89 6.68 2.8 10.93 15.04 5.51s2.43-7.19 2.43-7.56c0-.37-.28-9.9-.28-9.9s1.49-3.83 1.4-6.07c-.09-2.24-2.43-8.03-2.43-8.03l-1.68-1.12s-3.08 4.58-7.19 6.72c-4.11 2.14-9.2 2.84-9.2 2.84Z" transform="translate(457 204)"></path><path fill="url(#aq)" d="M97.94 236.36c-.09-2.24-2.43-8.03-2.43-8.03l-1.68-1.12s-3.08 4.58-7.19 6.72c-4.11 2.15-9.2 2.85-9.2 2.85l-.89 6.68s15.68 0 20.09-1.32c.34-.92 1.37-3.9 1.3-5.78Z" transform="translate(457 204)"></path><path fill="url(#ar)" d="M39.47 241.41c-2.8.28-9.25-2.38-9.25-2.38s-.98-5.32-1.54-6.44-3.92-3.5-5.18-2.8c-1.26.7-.14 8.13-.14 8.13s-1.26 1.4-2.66 3.22c-1.04 1.36-1.7 3.65-1.96 4.73l5.82 8.44 8.76 5.32 5.97-1.14c3.23-3.81 6.93-8.39 7.47-9.93.98-2.8.7-10.51.7-10.51s-5.19 3.08-7.99 3.36Z" transform="translate(457 204)"></path><path fill="url(#as)" d="M76.55 243.46s-1.4 1.4.37 7.75l5.7 20.45s-.09 5.32-.09 6.26c0 .93-2.43 7.57-2.43 8.59 0 1.02.56 2.99 1.59 3.92 1.03.93 2.62 2.61 2.62 2.61l4.2-.84 12.33-8.03 2.43-3.55s-5.32-8.22-5.98-11.02c-.65-2.8-1.4-14.29-1.4-14.29l-1.49 4.57-15.04-5.51-2.81-10.91Z" transform="translate(457 204)"></path><path fill="url(#at)" d="M84.3 293.06s-.09 3.08 1.87 4.2c1.96 1.12 2.71 1.03 4.02 1.03 1.31 0 8.59.19 8.59.19s14.76 4.3 18.87 4.11c4.11-.19 6.91-1.49 6.91-1.49s-.09-2.43-3.36-4.86-14.76-8.22-16.9-9.99c-2.15-1.77-2.8-3.08-2.8-3.08l-.65 1.03-12.33 8.03-4.22.83Z" transform="translate(457 204)"></path><path fill="#000" d="M546.62 500.05c-2.41-.44-3.85-2.36-4.36-3.18l-.96.19s-.09 3.08 1.87 4.2c1.96 1.12 2.71 1.03 4.02 1.03 1.31 0 8.59.19 8.59.19s14.76 4.3 18.87 4.11c.75-.03 1.46-.11 2.11-.2-3.75-.81-27.3-5.83-30.14-6.34ZM489.33 361.77l.7-2.8s11.63 4.76 25.36 5.6c13.73.84 14.85.14 14.85.14l.42 2.94c-.01.01-19.48 1.55-41.33-5.88Z"></path><path fill="url(#au)" d="M48.81 101.97s-.93-6.26-1.31-7.66c-.37-1.4-2.71-12.8.56-18.03s10.93-6.44 16.16-4.48 6.07 4.3 6.07 4.3l1.4-2.43s3.27 3.92 4.48 8.78c1.21 4.86 1.31 7.85 1.31 7.85l4.86.93s-7.47 13.36-9.06 14.29c-1.59.93-3.74 1.59-3.74 1.59l1.68 4.48s-14.94-4.02-22.41-9.62Z" transform="translate(457 204)"></path><path fill="#000" d="M505.81 305.97c7.47 5.6 22.42 9.62 22.42 9.62l-1.68-4.48s-15.13-5.4-21.23-8.33c.27 1.69.49 3.19.49 3.19Z"></path><path fill="url(#av)" d="M54.74 78.55c-.63-1.05-5.57-.7-4.34 3.43.98 3.29 7.07 12.26 7.07 12.26l12.07 12.86s2.15-.65 3.74-1.59c1.59-.93 9.06-14.29 9.06-14.29l-4.86-.93-16.93-3.2c0 .01-5.5-8.03-5.81-8.54Z" transform="translate(457 204)"></path><path fill="#1A0C4D" d="M508.45 285.21c0-.93.75-1.68 1.68-1.68.93 0 1.68.75 1.68 1.68 0 .93-.75 1.68-1.68 1.68-.93 0-1.68-.75-1.68-1.68Z"></path><path fill="#000" d="m521.41 291.59.21-1.12 12.67 2.66.19 1.17z"></path><path fill="url(#aw)" d="m48.58 102.09-7.28 4.06s10.37 9.11 18.07 11.21c7.71 2.1 13.52 1.75 13.52 1.75l-.14-5.67-1.52-1.84s-10.65-3.5-14.03-4.95c-2.22-.95-8.38-4.67-8.38-4.67l-.24.11Z" transform="translate(457 204)"></path><path fill="url(#ax)" d="M41.29 106.15s-12.88-1.25-16.39 2.1c-4.62 4.41-3.99 8.9-3.99 8.9s.7-.84 2.73-.63c2.03.21 3.15.56 3.15.56s4.27 2.17 4.06 6.3c-.21 4.13-2.1 8.2-2.1 8.2s3.8.47 9.34.05c5.53-.42 15.81-10.14 14.48-13.99-1.33-3.85-1.89-4.48-1.89-4.48s-7.5-4.7-9.39-7.01Z" transform="translate(457 204)"></path><path fill="url(#ay)" d="m21.61 116.94-1.68 2.59s8.48 5.39 8.69 5.25c.21-.14 2.1-3.01 2.1-3.01l-7.85-5.25-1.26.42Z" transform="translate(457 204)"></path><path fill="url(#az)" d="M23.36 116.59c.28-.07 2.45-.07 4.55 1.26 2.1 1.33 2.66 3.64 2.66 3.64l-7.21-4.9Z" transform="translate(457 204)"></path><path fill="url(#aA)" d="m20.35 119.74-3.72 4.62 7.78 4.55 3.64-4.34z" transform="translate(457 204)"></path><path fill="url(#aB)" d="m17.05 124.57-3.57 4.48 6.73 4.49 3.78-4.69z" transform="translate(457 204)"></path><path fill="url(#aC)" d="M12.57 131.09s.35.49.98 1.89 0 3.99-.14 4.2c-.14.21 3.71.07 3.71.07s2.03-2.24 2.24-2.87c.21-.63-5.53-4.97-5.53-4.97l-1.26 1.68Z" transform="translate(457 204)"></path><path fill="url(#aD)" d="M3.19 142.5s6.72-3.01 8.48-4.06c1.75-1.05 1.75-1.26 1.75-1.26s.77-2.31.14-4.2c-.63-1.89-1.89-2.38-1.89-2.38s-4 .7-8.48 11.9Z" transform="translate(457 204)"></path><path fill="url(#aE)" d="M17.12 137.25s2.94 0 5.6.42c2.66.42 3.29 1.12 3.29.91 0-.21 4.55-4.62 4.55-4.62l-.21-2.1-1.61-.28s1.54-3.15 1.82-5.67.14-4.13.14-4.13-8.9 4.9-8.9 5.18c0 .28-5.53 5.6-5.53 5.88 0 .28-1.26 4.2-.91 4.2.36 0 1.76.21 1.76.21Z" transform="translate(457 204)"></path><path fill="url(#aF)" d="M3.19 142.5s-.91 2.52-.56 3.78c.35 1.26 2.59 6.79 2.59 6.79s3.85 1.19 5.67 1.33c1.82.14 3.22 0 3.22 0s-7.35-6.23-7.56-7.71c-.21-1.47-.07-3.92-.07-3.92l4.27-3.85-7.56 3.58Z" transform="translate(457 204)"></path><path fill="url(#aG)" d="M13.76 154.2c.21 0 3.36 1.4 4.69 1.4 1.33 0 4.48-1.05 4.48-1.05s-3.36-3.29-3.43-4.27c-.07-.98-.35-5.11.28-5.95.63-.84 6.23-5.74 6.23-5.74s-3.85-1.19-6.65-1.19c-2.8 0-5.95-.21-5.95-.21l-6.93 5.6.07 3.92 7.21 7.49Z" transform="translate(457 204)"></path><path fill="#1A0C4D" d="m480.01 358.27 4.76 1.54s5.6-2.59 5.95-2.87c.35-.28.49-1.05.28-1.33-.21-.28-.56-.35-.56-.35s1.4-.84 1.05-1.61c-.35-.77-.63-.91-.63-.91s1.96-.49 1.68-1.68l-.28-1.19s.98-.49 1.19-1.12l.21-.63-3.71-2.1-3.78-2.73s-2.8-1.05-3.15-.7c-.35.35-6.23 5.74-6.23 5.74l-.21 6.23s2.73 3.22 3.43 3.71Z"></path><path fill="#000" d="m481.34 358.74-2.34 4.95.17 1.17h3.08l2.52-5.05z"></path><path fill="#000" d="M479 363.69s-2.01 1.1-2.57 3.27 0 4.06 1.89 4.55c1.89.49 3.22-1.54 3.71-3.29.49-1.75.21-3.36.21-3.36h-3.08l-.16-1.17ZM485.12 342.79s-1.26-3.5-.21-3.36c1.05.14 11.77 6.72 11.84 7.07.07.35-2.1 1.61-3.36 1.33-1.26-.28-8.27-5.04-8.27-5.04Z"></path><path fill="url(#aH)" d="M31.62 137.46S94.94 5 95.99 3.6C97.04 2.2 98.58.52 98.58.52s.14 2.31-.84 4.97c-.98 2.66-62.06 134.42-62.06 134.42l-4.06-2.45Z" transform="translate(457 204)"></path><path fill="#FFF" d="m490.48 342.67 65.11-138.15-2.53 2.34-64.44 134.6"></path><path fill="url(#aI)" d="M73.54 100.81s16.26-2.1 22.45-2.73c6.19-.63 11.22 0 11.22 0s.63 89.68.42 91.99c-.21 2.31-1.57 4.2-2.94 4.09-1.36-.1-15.31-4.93-24.23-22.13-4.55-8.79-6.5-28.95-7.34-46.89-.84-17.94.42-24.33.42-24.33Z" transform="translate(457 204)"></path><path fill="#FFF" d="M563.86 306.84s-11.27-.31-17.21.63c-5.95.94-10.17 1.88-10.17 1.88s-1.73 12.53.78 37.86c2.19 22.06 6.88 31.61 6.88 31.61s-5.63-5.16-8.29-29.73c-3.3-30.49-1.32-40.82-1.32-40.82s16.48-3.69 29.71-2.63" opacity=".7"></path><path fill="url(#aJ)" d="M107.67 187.26c-.22.55-.48 1.06-.77 1.44-1.26 1.68-9.13-.94-17.2-10.38-8.08-9.44-9.75-24.02-11.01-34.19-1.26-10.17-1.15-39.86-1.15-39.86s8.08-1.89 15.21-2.31c4.66-.27 10.81-.32 14.5-.33-.01-2.27-.02-3.55-.02-3.55s-5.03-.63-11.22 0-22.45 2.73-22.45 2.73-1.26 6.4-.42 24.33c.84 17.94 2.79 38.1 7.34 46.89 8.92 17.2 22.87 22.03 24.23 22.13 1.36.11 2.73-1.78 2.94-4.09 0-.22.01-1.2.02-2.81Z" transform="translate(457 204)"></path><path fill="url(#aK)" d="M32.33 157.77s-3.78 4.06-5.88 7.71c-2.1 3.64-3.78 6.86-3.78 6.86s12.89 7.7 31.8 10.51c18.91 2.8 24.66-2.94 24.66-2.94l-1.54-5.88-4.9-10.37c-.02 0-17.53 1.82-40.36-5.89Z" transform="translate(457 204)"></path><path fill="url(#aL)" d="M78.87 178.98c-8.76 4.84-21.67 4.08-36.01-.1-13.52-3.94-18.55-7.38-19.41-8.03-.49.92-.79 1.49-.79 1.49s12.89 7.7 31.8 10.51c18.91 2.8 24.66-2.94 24.66-2.94l-.25-.93Z" transform="translate(457 204)"></path><path fill="#FFF" d="m497.59 445.13-5.79 17.71-8.45 10.33-6.34 15.02 6.7-14.05 7.57-5.88s4.55-5.34 5-5.76c.45-.43 7.8-11.07 7.8-11.07l.37-9.37-6.86 3.07Z" opacity=".4"></path></g></svg>